# xmcd
#
# Track frame offsets:
#	150
#	12315
#	24293
#	36373
#	52835
#	70785
#	84648
#	95478
#	109135
#	120098
#	134533
#	151538
#	163773
#	177155
#	194298
#	208773
#
# Disc length: 2989 seconds
#
# Revision: 1
# Processed by: cddbd v1.5PL3 Copyright (c) Steve Scherf et al.
# Submitted via: audiograbber 1.83.01
#
DISCID=c70bab10
DTITLE=Jarno Sarjanen - Parhaat
DYEAR=1989
DGENRE=Country
TTITLE0=Jambalaya
TTITLE1=Tikkamies
TTITLE2=East Virginia
TTITLE3=Kadun Lait
TTITLE4=Keskikalja-Cowboy
TTITLE5=Maanantaiaamu
TTITLE6=Kiven Sis‰ll‰
TTITLE7=Peluri
TTITLE8=Pienen Pojan Haaveet
TTITLE9=Nukkekoti
TTITLE10=Mustat Kaleerit - Die Schwarze Galeere
TTITLE11=V‰h‰n Ennen Kyyneleit‰ - El Angel De La Guarda
TTITLE12=Taksikuski
TTITLE13=Takkulan Baari
TTITLE14=Tallirenki
TTITLE15=Jos Henkinen Kantti Vain Riitt‰‰
EXTD=
EXTT0=
EXTT1=
EXTT2=
EXTT3=
EXTT4=
EXTT5=
EXTT6=
EXTT7=
EXTT8=
EXTT9=
EXTT10=
EXTT11=
EXTT12=
EXTT13=
EXTT14=
EXTT15=
PLAYORDER=
